<svg width="48" height="48" viewBox="0 0 48 48" fill="none" xmlns="http://www.w3.org/2000/svg">
<g clip-path="url(#clip0_714_35007)">
<path d="M3.62012 40.4199H17.1201C19.0485 40.4199 20.9335 39.8481 22.5369 38.7768C24.1403 37.7054 25.39 36.1827 26.1279 34.4011C26.8659 32.6195 27.059 30.6591 26.6828 28.7678C26.3066 26.8765 25.378 25.1392 24.0144 23.7756C22.6508 22.4121 20.9136 21.4835 19.0222 21.1073C17.1309 20.7311 15.1705 20.9241 13.389 21.6621C11.6074 22.4001 10.0846 23.6497 9.01329 25.2531C7.94194 26.8565 7.37012 28.7416 7.37012 30.6699C7.37012 37.4199 3.62012 40.4199 3.62012 40.4199Z" stroke="#242424" stroke-width="3" stroke-linecap="round" stroke-linejoin="round"/>
<path d="M20.9453 21.7074C24.5453 16.8512 33.6953 5.73242 42.0578 5.73242C42.0578 14.0949 30.9391 23.2449 26.0828 26.8449" stroke="#242424" stroke-width="3" stroke-linecap="round" stroke-linejoin="round"/>
<path d="M24.8076 16.9072C27.3482 18.341 29.4488 20.4416 30.8826 22.9822" stroke="#242424" stroke-width="3" stroke-linecap="round" stroke-linejoin="round"/>
</g>
<defs>
<clipPath id="clip0_714_35007">
<rect width="48" height="48" fill="#FEFEFE"/>
</clipPath>
</defs>
</svg>
