<svg width="48" height="48" viewBox="0 0 48 48" fill="none" xmlns="http://www.w3.org/2000/svg">
<path d="M23.7402 23.9199C32.8529 23.9199 40.2402 19.8905 40.2402 14.9199C40.2402 9.94936 32.8529 5.91992 23.7402 5.91992C14.6275 5.91992 7.24023 9.94936 7.24023 14.9199C7.24023 19.8905 14.6275 23.9199 23.7402 23.9199Z" stroke="#242424" stroke-width="3" stroke-linecap="round" stroke-linejoin="round"/>
<path d="M7.24023 14.9199V23.9199C7.24023 28.8887 14.6277 32.9199 23.7402 32.9199C32.8527 32.9199 40.2402 28.8887 40.2402 23.9199V14.9199" stroke="#242424" stroke-width="3" stroke-linecap="round" stroke-linejoin="round"/>
<path d="M7.24023 23.9199V32.9199C7.24023 37.8887 14.6277 41.9199 23.7402 41.9199C32.8527 41.9199 40.2402 37.8887 40.2402 32.9199V23.9199" stroke="#242424" stroke-width="3" stroke-linecap="round" stroke-linejoin="round"/>
</svg>
