<svg width="48" height="48" viewBox="0 0 48 48" fill="none" xmlns="http://www.w3.org/2000/svg">
<g clip-path="url(#clip0_714_35022)">
<path d="M24 33.5098C28.1421 33.5098 31.5 30.1519 31.5 26.0098C31.5 21.8676 28.1421 18.5098 24 18.5098C19.8579 18.5098 16.5 21.8676 16.5 26.0098C16.5 30.1519 19.8579 33.5098 24 33.5098Z" stroke="#242424" stroke-width="3" stroke-linecap="round" stroke-linejoin="round"/>
<path d="M36.75 21.5098C38.497 21.5069 40.2206 21.9122 41.7831 22.6935C43.3457 23.4748 44.7041 24.6104 45.75 26.0098" stroke="#242424" stroke-width="3" stroke-linecap="round" stroke-linejoin="round"/>
<path d="M2.25 26.0098C3.29587 24.6104 4.65427 23.4748 6.21686 22.6935C7.77945 21.9122 9.50298 21.5069 11.25 21.5098" stroke="#242424" stroke-width="3" stroke-linecap="round" stroke-linejoin="round"/>
<path d="M13.2002 40.2598C14.188 38.2369 15.7241 36.532 17.6335 35.3395C19.543 34.1469 21.749 33.5146 24.0002 33.5146C26.2514 33.5146 28.4574 34.1469 30.3669 35.3395C32.2763 36.532 33.8124 38.2369 34.8002 40.2598" stroke="#242424" stroke-width="3" stroke-linecap="round" stroke-linejoin="round"/>
<path d="M11.2502 21.5098C10.1114 21.5109 8.99583 21.188 8.03376 20.5786C7.07169 19.9693 6.3029 19.0988 5.8172 18.0687C5.33151 17.0387 5.14899 15.8917 5.29095 14.7618C5.43291 13.6319 5.8935 12.5657 6.61889 11.6878C7.34429 10.81 8.30454 10.1567 9.38744 9.80427C10.4703 9.45187 11.6312 9.41493 12.7343 9.69775C13.8374 9.98058 14.8372 10.5715 15.617 11.4015C16.3968 12.2314 16.9242 13.2662 17.1377 14.3848" stroke="#242424" stroke-width="3" stroke-linecap="round" stroke-linejoin="round"/>
<path d="M30.8623 14.3848C31.0758 13.2662 31.6033 12.2314 32.383 11.4015C33.1628 10.5715 34.1626 9.98058 35.2658 9.69775C36.3689 9.41493 37.5297 9.45187 38.6126 9.80427C39.6955 10.1567 40.6557 10.81 41.3811 11.6878C42.1065 12.5657 42.5671 13.6319 42.7091 14.7618C42.851 15.8917 42.6685 17.0387 42.1828 18.0687C41.6971 19.0988 40.9283 19.9693 39.9663 20.5786C39.0042 21.188 37.8886 21.5109 36.7498 21.5098" stroke="#242424" stroke-width="3" stroke-linecap="round" stroke-linejoin="round"/>
</g>
<defs>
<clipPath id="clip0_714_35022">
<rect width="48" height="48" fill="#FEFEFE"/>
</clipPath>
</defs>
</svg>
