<svg width="24" height="24" viewBox="0 0 24 24" fill="none" xmlns="http://www.w3.org/2000/svg">
<g id="Vertical container">
<path id="Vector" fill-rule="evenodd" clip-rule="evenodd" d="M17.2997 15.9997L20.6997 19.2997C20.8441 19.4923 20.9143 19.7305 20.8972 19.9706C20.8801 20.2107 20.777 20.4366 20.6068 20.6068C20.4366 20.777 20.2107 20.8801 19.9706 20.8972C19.7305 20.9143 19.4923 20.8441 19.2997 20.6997L15.8997 17.2997C14.293 18.5501 12.2701 19.1409 10.243 18.9517C8.21596 18.7626 6.33726 17.8077 4.98968 16.2816C3.64211 14.7556 2.92705 12.7732 2.99018 10.7382C3.05331 8.70335 3.88989 6.76906 5.32948 5.32948C6.76906 3.88989 8.70335 3.05331 10.7382 2.99018C12.7732 2.92705 14.7556 3.64211 16.2816 4.98968C17.8077 6.33726 18.7626 8.21596 18.9517 10.243C19.1409 12.2701 18.5501 14.293 17.2997 15.8997V15.9997ZM10.9997 16.9997C11.7876 16.9997 12.5679 16.8445 13.2958 16.543C14.0238 16.2415 14.6852 15.7995 15.2423 15.2423C15.7995 14.6852 16.2415 14.0238 16.543 13.2958C16.8445 12.5679 16.9997 11.7876 16.9997 10.9997C16.9997 10.2118 16.8445 9.43156 16.543 8.70361C16.2415 7.97565 15.7995 7.31422 15.2423 6.75707C14.6852 6.19992 14.0238 5.75796 13.2958 5.45643C12.5679 5.1549 11.7876 4.99971 10.9997 4.99971C9.40841 4.99971 7.88229 5.63185 6.75707 6.75707C5.63185 7.88229 4.99971 9.40841 4.99971 10.9997C4.99971 12.591 5.63185 14.1171 6.75707 15.2423C7.88229 16.3676 9.40841 16.9997 10.9997 16.9997Z" fill="#674EAE"/>
</g>
</svg>
