<svg width="24" height="24" viewBox="0 0 24 24" fill="none" xmlns="http://www.w3.org/2000/svg">
  <path d="M8.4603 12.71L14.1203 18.36C14.2133 18.4537 14.3239 18.5281 14.4457 18.5789C14.5675 18.6297 14.6982 18.6558 14.8302 18.6558C14.9623 18.6558 15.093 18.6297 15.2149 18.5789C15.3367 18.5281 15.4473 18.4537 15.5403 18.36C15.7265 18.1726 15.8311 17.9192 15.8311 17.655C15.8311 17.3908 15.7265 17.1374 15.5403 16.95L10.5903 11.95L15.5403 6.95C15.7265 6.76263 15.8311 6.50918 15.8311 6.245C15.8311 5.98082 15.7265 5.72737 15.5403 5.54C15.4477 5.44553 15.3372 5.37035 15.2153 5.31887C15.0934 5.2674 14.9626 5.24059 14.8303 5.24C14.698 5.24059 14.5672 5.2674 14.4453 5.31887C14.3235 5.37035 14.213 5.44553 14.1203 5.54L8.4603 11.19C8.35881 11.2836 8.27774 11.3973 8.22234 11.5238C8.16694 11.6503 8.1383 11.7869 8.1383 11.925C8.1383 12.0631 8.16694 12.1997 8.22234 12.3262C8.27774 12.4527 8.35881 12.5664 8.4603 12.66Z" fill="#C9CCD8"/>
</svg>
