<svg width="1440" height="302" viewBox="0 0 1440 302" fill="none" xmlns="http://www.w3.org/2000/svg">
<g clip-path="url(#clip0_2682_38613)">
<rect width="1440" height="302" fill="#0D0130"/>
<path fill-rule="evenodd" clip-rule="evenodd" d="M1450.85 293.917C1450.07 322.6 1483 350.087 1470.53 375.929C1458.27 401.333 1422.51 404.166 1394.89 409.883C1372.43 414.532 1350.49 407.191 1327.61 405.508C1304 403.771 1274.91 416.656 1258.25 399.831C1241.12 382.533 1261.67 350.705 1251.46 328.603C1239.25 302.151 1201.5 292.32 1195.47 263.817C1188.84 232.501 1198.09 197.28 1218.46 172.586C1239.58 146.977 1272.92 130.938 1306.09 129.69C1337.75 128.499 1362.68 153.624 1391.83 166.065C1420.25 178.2 1462.33 173.867 1475.29 201.926C1488.86 231.327 1451.74 261.547 1450.85 293.917Z" fill="#674EAE"/>
<path opacity="0.4" d="M1338.11 236.799L1360.69 251.118L1337.4 264.111L1314.18 277.061L1314.89 249.85L1315.6 222.58L1338.11 236.798L1338.11 236.799Z" fill="#674EAE" fill-opacity="0.8" stroke="#FEFEFE" stroke-width="2.25"/>
<path d="M40.5159 224.723C37.6494 216.827 37.2887 208.113 39.2243 200.035C41.1781 191.913 45.3636 184.459 51.5081 178.96C57.4551 173.639 65.0579 170.34 72.9258 169.269C76.8616 168.729 80.8998 168.763 84.8506 169.387C88.8305 170.013 92.835 171.229 96.4157 173.179C100.103 175.188 103.555 178.161 105.033 182.28C106.582 186.638 106.537 191.562 105.299 195.936C104.04 200.362 101.765 204.589 98.4945 207.758C97.042 209.163 95.4316 210.413 93.5566 211.16C91.8887 211.826 90.0619 212.171 88.26 212.218C84.8801 212.312 80.9031 211.439 78.7778 208.436C77.6837 206.89 77.2149 204.877 76.9089 203.033C76.5572 200.889 76.4711 198.671 76.7087 196.53C76.9437 194.419 77.6414 192.346 78.34 190.366C79.1219 188.166 80.0485 186.033 81.1114 183.963C83.242 179.835 85.8859 175.985 88.9806 172.56C92.001 169.214 95.4629 166.122 99.3166 163.811C103.025 161.577 107.145 160.172 111.408 159.463C120.889 157.876 130.553 159.842 139.664 162.844C142.022 163.621 144.35 164.467 146.673 165.351C147.147 165.529 147.345 166.167 147.158 166.607C146.949 167.099 146.414 167.255 145.939 167.078C137.023 163.691 127.666 160.669 118.118 160.78C114.035 160.829 109.957 161.416 106.106 162.738C102.158 164.098 98.6779 166.273 95.4664 168.942C88.7495 174.518 83.489 181.962 80.3783 190.242C79.6627 192.142 78.9481 194.135 78.6377 196.16C78.347 198.091 78.3873 200.081 78.6322 202.021C78.8508 203.711 79.2149 205.706 80.123 207.116C80.9183 208.36 82.127 209.133 83.5043 209.655C86.5289 210.78 90.2194 210.53 93.1448 209.277C94.8225 208.564 96.3295 207.317 97.6077 205.987C99.1055 204.426 100.375 202.637 101.384 200.718C103.384 196.922 104.569 192.647 104.321 188.27C104.207 186.163 103.822 184.003 102.955 182.066C102.169 180.32 100.936 178.813 99.5137 177.559C96.5562 174.957 92.8313 173.323 89.1175 172.261C85.467 171.219 81.6645 170.726 77.8854 170.801C70.3723 170.941 62.926 173.177 56.6876 177.362C50.2651 181.67 45.4316 187.989 42.6367 195.311C39.8528 202.606 39.1321 210.749 40.684 218.504C41.0629 220.392 41.5892 222.245 42.2459 224.055C42.6504 225.212 40.9326 225.875 40.5159 224.723Z" fill="#674EAE" fill-opacity="0.8"/>
<path d="M145.479 156.87C145.465 156.998 145.464 157.122 145.459 157.254C145.463 157.173 145.458 157.088 145.462 157.007C145.464 157.867 145.652 158.721 145.828 159.558C146.006 160.437 146.196 161.312 146.394 162.19C146.51 162.689 146.633 163.191 146.757 163.693C146.74 163.613 146.719 163.541 146.694 163.457C146.834 164.039 147.008 164.617 147.136 165.204C147.301 165.922 147.044 166.694 146.419 167.08C145.976 167.353 145.464 167.5 144.979 167.702C144.535 167.881 144.096 168.072 143.67 168.28C143.183 168.512 142.701 168.756 142.235 169.008C142.304 168.967 142.369 168.935 142.446 168.898C141.168 169.594 139.959 170.395 138.809 171.295C138.485 171.55 138.158 171.814 137.836 172.09C137.67 172.242 137.373 172.291 137.154 172.253C136.923 172.219 136.66 172.067 136.532 171.863C136.404 171.659 136.316 171.411 136.36 171.163C136.408 170.905 136.535 170.704 136.73 170.535C138.758 168.796 141.032 167.367 143.455 166.286C143.784 166.137 144.119 166.001 144.453 165.864C144.783 165.737 145.135 165.63 145.451 165.464C145.382 165.505 145.318 165.537 145.241 165.574C145.321 165.529 145.394 165.479 145.473 165.412C145.418 165.47 145.354 165.523 145.299 165.581C145.351 165.532 145.394 165.479 145.428 165.422C145.386 165.496 145.344 165.57 145.294 165.641C145.325 165.593 145.351 165.532 145.364 165.476C145.34 165.558 145.315 165.64 145.299 165.726C145.316 165.661 145.321 165.601 145.326 165.541C145.322 165.622 145.327 165.708 145.323 165.789C145.323 165.644 145.299 165.508 145.267 165.369C145.284 165.449 145.304 165.521 145.33 165.605C144.748 163.297 144.154 160.993 143.749 158.653C143.628 157.976 143.57 157.296 143.627 156.608C143.648 156.369 143.817 156.115 143.997 155.981C144.177 155.846 144.456 155.767 144.679 155.818C145.2 155.892 145.521 156.34 145.479 156.87Z" fill="#674EAE" fill-opacity="0.8"/>
<circle cx="174" cy="292" r="41.5" stroke="white" stroke-width="5"/>
<path d="M3.51946 -0.724405C5.07887 -2.33172 5.07891 -4.93773 3.5195 -6.54504C1.96009 -8.15235 -0.568259 -8.15231 -2.12767 -6.545C-3.68708 -4.93768 -3.68702 -2.33178 -2.12761 -0.724469C-0.568196 0.882843 1.96005 0.882907 3.51946 -0.724405Z" fill="#B3261E" fill-opacity="0.5"/>
<path d="M1.33792 22.5138C2.89733 20.9065 2.89727 18.3006 1.33786 16.6932C-0.221551 15.0859 -2.7498 15.0859 -4.30921 16.6932C-5.86862 18.3005 -5.86866 20.9065 -4.30925 22.5138C-2.74984 24.1211 -0.221489 24.1211 1.33792 22.5138Z" fill="#B3261E" fill-opacity="0.5"/>
<path d="M13.7011 9.76974C15.2605 8.16242 15.2606 5.55641 13.7011 3.9491C12.1417 2.34179 9.61338 2.34183 8.05397 3.94914C6.49456 5.55646 6.49462 8.16236 8.05403 9.76967C9.61345 11.377 12.1417 11.377 13.7011 9.76974Z" fill="#B3261E" fill-opacity="0.5"/>
<path d="M-0.824289 45.7297C0.735122 44.1224 0.735161 41.5164 -0.824251 39.9091C-2.38366 38.3017 -4.91201 38.3018 -6.47142 39.9091C-8.03083 41.5164 -8.03077 44.1223 -6.47136 45.7296C-4.91195 47.3369 -2.3837 47.337 -0.824289 45.7297Z" fill="#B3261E" fill-opacity="0.5"/>
<path d="M11.5196 33.0089C13.079 31.4016 13.0789 28.7957 11.5195 27.1884C9.96009 25.581 7.43185 25.581 5.87243 27.1883C4.31302 28.7956 4.31298 31.4016 5.87239 33.0089C7.4318 34.6162 9.96015 34.6162 11.5196 33.0089Z" fill="#B3261E" fill-opacity="0.5"/>
<path d="M23.8827 20.2649C25.4422 18.6575 25.4422 16.0515 23.8828 14.4442C22.3234 12.8369 19.795 12.8369 18.2356 14.4443C16.6762 16.0516 16.6763 18.6575 18.2357 20.2648C19.7951 21.8721 22.3233 21.8722 23.8827 20.2649Z" fill="#B3261E" fill-opacity="0.5"/>
<path d="M36.2246 7.54307C37.7841 5.93576 37.784 3.32985 36.2246 1.72254C34.6652 0.115225 32.1369 0.115162 30.5775 1.72247C29.0181 3.32979 29.0181 5.9358 30.5775 7.54311C32.1369 9.15042 34.6652 9.15038 36.2246 7.54307Z" fill="#B3261E" fill-opacity="0.5"/>
<path d="M9.3593 56.2248C10.9187 54.6175 10.9188 52.0115 9.35934 50.4042C7.79993 48.7969 5.27158 48.7969 3.71217 50.4042C2.15276 52.0115 2.15282 54.6174 3.71224 56.2247C5.27165 57.8321 7.79989 57.8321 9.3593 56.2248Z" fill="#B3261E" fill-opacity="0.5"/>
<path d="M21.7032 43.504C23.2626 41.8967 23.2625 39.2908 21.7031 37.6835C20.1437 36.0762 17.6154 36.0761 16.056 37.6834C14.4966 39.2907 14.4966 41.8967 16.056 43.504C17.6154 45.1114 20.1437 45.1113 21.7032 43.504Z" fill="#B3261E" fill-opacity="0.5"/>
<path d="M34.0663 30.76C35.6257 29.1527 35.6258 26.5466 34.0664 24.9393C32.507 23.332 29.9786 23.3321 28.4192 24.9394C26.8598 26.5467 26.8599 29.1526 28.4193 30.7599C29.9787 32.3672 32.5069 32.3673 34.0663 30.76Z" fill="#B3261E" fill-opacity="0.5"/>
<path d="M46.4082 18.0382C47.9676 16.4309 47.9676 13.825 46.4082 12.2177C44.8488 10.6103 42.3205 10.6103 40.7611 12.2176C39.2017 13.8249 39.2017 16.4309 40.7611 18.0382C42.3205 19.6455 44.8488 19.6455 46.4082 18.0382Z" fill="#B3261E" fill-opacity="0.5"/>
<path d="M58.7714 5.29512C60.3308 3.68781 60.3309 1.0818 58.7715 -0.52551C57.212 -2.13282 54.6837 -2.13278 53.1243 -0.525466C51.5649 1.08185 51.5649 3.68775 53.1243 5.29506C54.6838 6.90237 57.212 6.90244 58.7714 5.29512Z" fill="#B3261E" fill-opacity="0.5"/>
<path d="M7.19925 79.4405C8.75866 77.8332 8.7586 75.2273 7.19919 73.62C5.63978 72.0127 3.11153 72.0126 1.55212 73.6199C-0.00728989 75.2272 -0.0073289 77.8333 1.55208 79.4406C3.11149 81.0479 5.63984 81.0478 7.19925 79.4405Z" fill="#B3261E" fill-opacity="0.5"/>
<path d="M19.5409 66.719C21.1004 65.1116 21.1004 62.5056 19.541 60.8983C17.9816 59.291 15.4532 59.2911 13.8938 60.8984C12.3344 62.5057 12.3345 65.1116 13.8939 66.7189C15.4533 68.3262 17.9815 68.3263 19.5409 66.719Z" fill="#B3261E" fill-opacity="0.5"/>
<path d="M31.8848 53.9981C33.4442 52.3908 33.4441 49.7849 31.8847 48.1776C30.3253 46.5703 27.7971 46.5702 26.2377 48.1776C24.6783 49.7849 24.6782 52.3909 26.2376 53.9982C27.797 55.6055 30.3254 55.6055 31.8848 53.9981Z" fill="#B3261E" fill-opacity="0.5"/>
<path d="M44.248 41.2541C45.8074 39.6468 45.8074 37.0408 44.248 35.4335C42.6886 33.8262 40.1603 33.8262 38.6008 35.4335C37.0414 37.0408 37.0415 39.6467 38.6009 41.254C40.1603 42.8614 42.6886 42.8614 44.248 41.2541Z" fill="#B3261E" fill-opacity="0.5"/>
<path d="M56.5899 28.5323C58.1493 26.925 58.1492 24.3191 56.5898 22.7118C55.0304 21.1045 52.5022 21.1044 50.9427 22.7117C49.3833 24.319 49.3833 26.9251 50.9427 28.5324C52.5021 30.1397 55.0305 30.1396 56.5899 28.5323Z" fill="#B3261E" fill-opacity="0.5"/>
<path d="M68.9531 15.7893C70.5125 14.182 70.5125 11.5759 68.9531 9.96863C67.3937 8.36132 64.8653 8.36136 63.3059 9.96867C61.7465 11.576 61.7466 14.1819 63.306 15.7892C64.8654 17.3965 67.3936 17.3966 68.9531 15.7893Z" fill="#B3261E" fill-opacity="0.5"/>
<path d="M17.3809 89.9356C18.9403 88.3283 18.9402 85.7224 17.3808 84.1151C15.8214 82.5078 13.2932 82.5077 11.7338 84.1151C10.1744 85.7224 10.1743 88.3284 11.7337 89.9357C13.2931 91.543 15.8215 91.543 17.3809 89.9356Z" fill="#B3261E" fill-opacity="0.5"/>
<path d="M29.7226 77.2141C31.282 75.6068 31.282 73.0008 29.7226 71.3934C28.1632 69.7861 25.6349 69.7862 24.0755 71.3935C22.516 73.0008 22.5161 75.6067 24.0755 77.214C25.6349 78.8213 28.1632 78.8214 29.7226 77.2141Z" fill="#B3261E" fill-opacity="0.5"/>
<path d="M42.0664 64.4933C43.6258 62.8859 43.6258 60.28 42.0664 58.6727C40.507 57.0654 37.9787 57.0654 36.4193 58.6727C34.8599 60.28 34.8599 62.886 36.4193 64.4933C37.9787 66.1006 40.507 66.1006 42.0664 64.4933Z" fill="#B3261E" fill-opacity="0.5"/>
<path d="M54.4296 51.7492C55.989 50.1419 55.9891 47.5359 54.4297 45.9286C52.8702 44.3213 50.3419 44.3213 48.7825 45.9286C47.2231 47.5359 47.2231 50.1419 48.7826 51.7492C50.342 53.3565 52.8702 53.3565 54.4296 51.7492Z" fill="#B3261E" fill-opacity="0.5"/>
<path d="M66.7715 39.0274C68.3309 37.4201 68.3309 34.8142 66.7715 33.2069C65.212 31.5996 62.6838 31.5995 61.1244 33.2068C59.565 34.8142 59.5649 37.4202 61.1243 39.0275C62.6838 40.6348 65.2121 40.6348 66.7715 39.0274Z" fill="#B3261E" fill-opacity="0.5"/>
<path d="M79.1347 26.2844C80.6941 24.6771 80.6941 22.0711 79.1347 20.4638C77.5753 18.8564 75.047 18.8565 73.4876 20.4638C71.9282 22.0711 71.9282 24.677 73.4876 26.2843C75.047 27.8916 77.5753 27.8917 79.1347 26.2844Z" fill="#B3261E" fill-opacity="0.5"/>
<path d="M27.5625 100.43C29.1219 98.8225 29.1219 96.2166 27.5625 94.6093C26.0031 93.0019 23.4748 93.0019 21.9154 94.6092C20.356 96.2165 20.3559 98.8225 21.9154 100.43C23.4748 102.037 26.0031 102.037 27.5625 100.43Z" fill="#B3261E" fill-opacity="0.5"/>
<path d="M39.9042 87.7082C41.4636 86.1009 41.4637 83.4949 39.9043 81.8876C38.3449 80.2803 35.8165 80.2803 34.2571 81.8876C32.6977 83.4949 32.6977 86.1008 34.2572 87.7081C35.8166 89.3155 38.3448 89.3155 39.9042 87.7082Z" fill="#B3261E" fill-opacity="0.5"/>
<path d="M52.2481 74.9874C53.8075 73.3801 53.8074 70.7742 52.248 69.1669C50.6886 67.5596 48.1604 67.5595 46.6009 69.1668C45.0415 70.7741 45.0415 73.3801 46.6009 74.9874C48.1603 76.5948 50.6887 76.5947 52.2481 74.9874Z" fill="#B3261E" fill-opacity="0.5"/>
<path d="M64.6113 62.2434C66.1707 60.6361 66.1707 58.03 64.6113 56.4227C63.0519 54.8154 60.5235 54.8155 58.9641 56.4228C57.4047 58.0301 57.4048 60.636 58.9642 62.2433C60.5236 63.8506 63.0518 63.8507 64.6113 62.2434Z" fill="#B3261E" fill-opacity="0.5"/>
<path d="M76.9532 49.5216C78.5126 47.9143 78.5125 45.3084 76.9531 43.701C75.3937 42.0937 72.8654 42.0937 71.306 43.701C69.7466 45.3083 69.7466 47.9143 71.306 49.5216C72.8654 51.1289 75.3937 51.1289 76.9532 49.5216Z" fill="#B3261E" fill-opacity="0.5"/>
<path d="M89.3163 36.7785C90.8757 35.1712 90.8758 32.5652 89.3164 30.9579C87.757 29.3506 85.2286 29.3506 83.6692 30.9579C82.1098 32.5652 82.1099 35.1711 83.6693 36.7785C85.2287 38.3858 87.7569 38.3858 89.3163 36.7785Z" fill="#B3261E" fill-opacity="0.5"/>
</g>
<defs>
<clipPath id="clip0_2682_38613">
<rect width="1440" height="302" fill="white"/>
</clipPath>
</defs>
</svg>
