<svg width="24" height="24" viewBox="0 0 24 24" fill="none" xmlns="http://www.w3.org/2000/svg">
<g clip-path="url(#clip0_3725_15277)">
<path d="M9.9175 19.157V11.156H8.968C8.28797 11.5185 7.63074 11.9223 7 12.365V13.4075C7.5625 13.022 8.4535 12.4775 8.887 12.242H8.905V19.157H9.9175ZM11.6995 17.1995C11.77 18.1595 12.5905 19.3085 14.254 19.3085C16.141 19.3085 17.254 17.7095 17.254 15.002C17.254 12.101 16.0825 11 14.3245 11C12.9355 11 11.629 12.008 11.629 13.7135C11.629 15.4535 12.865 16.3685 14.143 16.3685C15.262 16.3685 15.988 15.8045 16.2175 15.1835H16.258C16.252 17.1575 15.5665 18.4295 14.3005 18.4295C13.3045 18.4295 12.7885 17.7545 12.7255 17.1995H11.6995ZM16.129 13.724C16.129 14.768 15.2905 15.494 14.353 15.494C13.4515 15.494 12.637 14.9195 12.637 13.694C12.637 12.4595 13.51 11.879 14.389 11.879C15.3385 11.879 16.129 12.476 16.129 13.724Z" fill="#674EAE"/>
<path d="M5.25 0C5.44891 0 5.63968 0.0790176 5.78033 0.21967C5.92098 0.360322 6 0.551088 6 0.75V1.5H18V0.75C18 0.551088 18.079 0.360322 18.2197 0.21967C18.3603 0.0790176 18.5511 0 18.75 0C18.9489 0 19.1397 0.0790176 19.2803 0.21967C19.421 0.360322 19.5 0.551088 19.5 0.75V1.5H21C21.7956 1.5 22.5587 1.81607 23.1213 2.37868C23.6839 2.94129 24 3.70435 24 4.5V21C24 21.7956 23.6839 22.5587 23.1213 23.1213C22.5587 23.6839 21.7956 24 21 24H3C2.20435 24 1.44129 23.6839 0.87868 23.1213C0.316071 22.5587 0 21.7956 0 21V4.5C0 3.70435 0.316071 2.94129 0.87868 2.37868C1.44129 1.81607 2.20435 1.5 3 1.5H4.5V0.75C4.5 0.551088 4.57902 0.360322 4.71967 0.21967C4.86032 0.0790176 5.05109 0 5.25 0V0ZM3 3C2.60218 3 2.22064 3.15804 1.93934 3.43934C1.65804 3.72064 1.5 4.10218 1.5 4.5V21C1.5 21.3978 1.65804 21.7794 1.93934 22.0607C2.22064 22.342 2.60218 22.5 3 22.5H21C21.3978 22.5 21.7794 22.342 22.0607 22.0607C22.342 21.7794 22.5 21.3978 22.5 21V4.5C22.5 4.10218 22.342 3.72064 22.0607 3.43934C21.7794 3.15804 21.3978 3 21 3H3Z" fill="#674EAE"/>
<path d="M4 5.75C4 5.55109 4.07902 5.36032 4.21967 5.21967C4.36032 5.07902 4.55109 5 4.75 5H19.75C19.9489 5 20.1397 5.07902 20.2803 5.21967C20.421 5.36032 20.5 5.55109 20.5 5.75V7.25C20.5 7.44891 20.421 7.63968 20.2803 7.78033C20.1397 7.92098 19.9489 8 19.75 8H4.75C4.55109 8 4.36032 7.92098 4.21967 7.78033C4.07902 7.63968 4 7.44891 4 7.25V5.75Z" fill="#674EAE"/>
</g>
<defs>
<clipPath id="clip0_3725_15277">
<rect width="24" height="24" fill="white"/>
</clipPath>
</defs>
</svg>
