<svg width="12" height="12" viewBox="0 0 12 12" fill="none" xmlns="http://www.w3.org/2000/svg">
<path fill-rule="evenodd" clip-rule="evenodd" d="M6 12C2.68629 12 0 9.31373 0 6C0 2.68629 2.68629 0 6 0C9.31373 0 12 2.68629 12 6C12 9.31373 9.31373 12 6 12ZM6 10.6667C8.57733 10.6667 10.6667 8.57733 10.6667 6C10.6667 3.42267 8.57733 1.33333 6 1.33333C3.42267 1.33333 1.33333 3.42267 1.33333 6C1.33333 8.57733 3.42267 10.6667 6 10.6667ZM7.80473 7.80473C8.06507 7.5444 8.06507 7.12227 7.80473 6.86193L6.66667 5.72387V3.33323C6.66667 2.96504 6.3682 2.66657 6 2.66657C5.6318 2.66657 5.33333 2.96504 5.33333 3.33323V6C5.33333 6.1768 5.4036 6.3464 5.5286 6.4714L6.86193 7.80473C7.12227 8.06507 7.5444 8.06507 7.80473 7.80473Z" fill="#767575"/>
</svg>
