<svg width="24" height="24" viewBox="0 0 24 24" fill="none" xmlns="http://www.w3.org/2000/svg">
<path d="M16.7067 3.29289L20.7067 7.29289C21.0972 7.68342 21.0972 8.31658 20.7067 8.70711L9.70669 19.7071C9.56709 19.8467 9.38929 19.9419 9.1957 19.9806L4.1957 20.9806C3.49597 21.1205 2.87905 20.5036 3.019 19.8039L4.019 14.8039C4.05772 14.6103 4.15287 14.4325 4.29247 14.2929L15.2925 3.29289C15.683 2.90237 16.3162 2.90237 16.7067 3.29289ZM13.499 7.914L5.92078 15.493L5.27433 18.7252L8.50657 18.0788L16.085 10.5L13.499 7.914ZM15.9996 5.41421L14.914 6.5L17.499 9.085L18.5854 8L15.9996 5.41421Z" fill="#2B2D33"/>
</svg>
