<svg width="24" height="24" viewBox="0 0 24 24" fill="none" xmlns="http://www.w3.org/2000/svg">
<path fill-rule="evenodd" clip-rule="evenodd" d="M19 2.5H4V4.5H16.1492L13.3753 6.71913C13.1381 6.9089 13 7.19622 13 7.5V18.5H4V20.5H13V21.5C13 21.8844 13.2203 22.2348 13.5668 22.4013C13.9133 22.5678 14.3245 22.521 14.6247 22.2809L19.6247 18.2809C19.8619 18.0911 20 17.8038 20 17.5V3.5C20 2.94772 19.5523 2.5 19 2.5ZM15 7.98062L18 5.58062V17.0194L15 19.4194V7.98062Z" fill="#674EAE"/>
<path d="M10.7071 12.2071C10.8946 12.0195 11 11.7652 11 11.5C11 11.2347 10.8946 10.9804 10.7071 10.7928L6.70711 6.79285L5.29289 8.20706L7.58579 10.5L2 10.5V12.5L7.58579 12.5L5.29289 14.7928L6.70711 16.2071L10.7071 12.2071Z" fill="#674EAE"/>
</svg>
