<svg width="24" height="24" viewBox="0 0 24 24" fill="none" xmlns="http://www.w3.org/2000/svg">
<g clip-path="url(#clip0_468_13622)">
<path fill-rule="evenodd" clip-rule="evenodd" d="M12 21C7.02944 21 3 16.9706 3 12C3 7.02944 7.02944 3 12 3C16.9706 3 21 7.02944 21 12C21 16.9706 16.9706 21 12 21ZM12.7288 7.27532C12.5372 7.08377 12.2724 6.98417 12.0021 7.00205C11.7317 6.98417 11.4669 7.08377 11.2753 7.27532C11.0838 7.46687 10.9842 7.73175 11.0021 8.00205V12.0021C10.9842 12.2724 11.0838 12.5372 11.2753 12.7288C11.4669 12.9203 11.7317 13.0199 12.0021 13.0021C12.2724 13.0199 12.5372 12.9203 12.7288 12.7288C12.9203 12.5372 13.0199 12.2724 13.0021 12.0021V8.00205C13.0199 7.73175 12.9203 7.46687 12.7288 7.27532ZM12.7288 15.2753C12.5372 15.0838 12.2724 14.9842 12.0021 15.0021C11.7317 14.9842 11.4669 15.0838 11.2753 15.2753C11.0838 15.4669 10.9842 15.7317 11.0021 16.0021C10.9842 16.2724 11.0838 16.5372 11.2753 16.7288C11.4669 16.9203 11.7317 17.0199 12.0021 17.0021C12.2724 17.0199 12.5372 16.9203 12.7288 16.7288C12.9203 16.5372 13.0199 16.2724 13.0021 16.0021C13.0199 15.7317 12.9203 15.4669 12.7288 15.2753Z" fill="#E62214"/>
</g>
<defs>
<clipPath id="clip0_468_13622">
<rect width="18" height="18" fill="white" transform="translate(3 3)"/>
</clipPath>
</defs>
</svg>
