<svg width="24" height="24" viewBox="0 0 24 24" fill="none" xmlns="http://www.w3.org/2000/svg">
<path d="M20.3125 16.875V5.50002C20.3138 5.17955 20.2517 4.86198 20.1297 4.56564C20.0077 4.26931 19.8282 4.00006 19.6016 3.77345C19.375 3.54684 19.1057 3.36735 18.8094 3.24533C18.513 3.12331 18.1955 3.06118 17.875 3.06252H4.0625" stroke="black" stroke-width="1.625" stroke-linecap="round" stroke-linejoin="round"/>
<path d="M10.5625 9.5625H17.0625" stroke="black" stroke-width="1.625" stroke-linecap="round" stroke-linejoin="round"/>
<path d="M10.5625 12.8125H17.0625" stroke="black" stroke-width="1.625" stroke-linecap="round" stroke-linejoin="round"/>
<path d="M2.24453 7.12492C1.98142 6.83033 1.79384 6.47621 1.69794 6.09305C1.60204 5.70989 1.60069 5.30916 1.694 4.92536C1.78732 4.54156 1.9725 4.18618 2.23362 3.88982C2.49474 3.59347 2.82396 3.365 3.19295 3.2241C3.56195 3.08319 3.95966 3.03407 4.35184 3.08096C4.74403 3.12784 5.11895 3.26933 5.44433 3.49325C5.76971 3.71717 6.0358 4.0168 6.2197 4.36636C6.40359 4.71592 6.49979 5.10494 6.5 5.49992V18.4999C6.50021 18.8949 6.5964 19.2839 6.7803 19.6335C6.9642 19.983 7.23029 20.2827 7.55567 20.5066C7.88105 20.7305 8.25597 20.872 8.64815 20.9189C9.04034 20.9658 9.43805 20.9166 9.80705 20.7757C10.176 20.6348 10.5053 20.4064 10.7664 20.11C11.0275 19.8137 11.2127 19.4583 11.306 19.0745C11.3993 18.6907 11.398 18.29 11.3021 17.9068C11.2062 17.5236 11.0186 17.1695 10.7555 16.8749H22.1305C22.4442 17.2257 22.6497 17.6598 22.7221 18.1249C22.7946 18.5899 22.7308 19.066 22.5385 19.4956C22.3463 19.9251 22.0338 20.2899 21.6388 20.5458C21.2438 20.8016 20.7831 20.9376 20.3125 20.9374H8.9375" stroke="black" stroke-width="1.625" stroke-linecap="round" stroke-linejoin="round"/>
</svg>
