<svg width="24" height="24" viewBox="0 0 24 24" fill="none" xmlns="http://www.w3.org/2000/svg">
<path fill-rule="evenodd" clip-rule="evenodd" d="M12.0001 3C12.0001 2.44772 12.4478 2 13.0001 2H16.0001C19.3138 2 22.0001 4.68629 22.0001 8V16C22.0001 19.3137 19.3138 22 16.0001 22H13.0001C12.4478 22 12.0001 21.5523 12.0001 21C12.0001 20.4477 12.4478 20 13.0001 20H16.0001C18.2092 20 20.0001 18.2091 20.0001 16V8C20.0001 5.79086 18.2092 4 16.0001 4H13.0001C12.4478 4 12.0001 3.55228 12.0001 3ZM10.0018 16V13.875L16.0097 13.124C16.5766 13.0532 17.002 12.5713 17.002 12C17.002 11.4287 16.5766 10.9468 16.0097 10.876L10.0018 10.125V8C10.0018 7.16149 9.03181 6.69531 8.37705 7.21914L3.37724 11.2191C2.87686 11.6195 2.87686 12.3805 3.37724 12.7809L8.37705 16.7809C9.03181 17.3047 10.0018 16.8385 10.0018 16Z" fill="#181818"/>
</svg>
