<svg width="24" height="24" viewBox="0 0 24 24" fill="none" xmlns="http://www.w3.org/2000/svg">
<path fill-rule="evenodd" clip-rule="evenodd" d="M8.28041 12.7082C6.8913 11.6093 6 9.90875 6 8C6 4.68629 8.68629 2 12 2C15.3137 2 18 4.68629 18 8C18 9.90875 17.1087 11.6093 15.7196 12.7082C19.3311 14.1179 22 17.4467 22 21C22 21.5523 21.5523 22 21 22C20.4477 22 20 21.5523 20 21C20 17.4457 16.2678 14 12 14C7.73216 14 4 17.4457 4 21C4 21.5523 3.55228 22 3 22C2.44772 22 2 21.5523 2 21C2 17.4467 4.66891 14.1179 8.28041 12.7082ZM12 12C14.2091 12 16 10.2091 16 8C16 5.79086 14.2091 4 12 4C9.79086 4 8 5.79086 8 8C8 10.2091 9.79086 12 12 12Z" fill="#674EAE"/>
</svg>
