<svg width="16" height="21" viewBox="0 0 16 21" fill="none" xmlns="http://www.w3.org/2000/svg">
<path fill-rule="evenodd" clip-rule="evenodd" d="M5 8.5C4.44772 8.5 4 8.94771 4 9.5V13.5C4 14.3335 4.64083 14.7778 4.98311 14.9679C5.34725 15.1702 5.79827 15.3203 6.14044 15.4343L6.18377 15.4487C6.58204 15.5814 6.85597 15.6765 7.03875 15.7766C7.15875 16.1944 7.54368 16.5 8 16.5C8.45632 16.5 8.84125 16.1944 8.96125 15.7766C9.14403 15.6765 9.41796 15.5814 9.81623 15.4487L9.85955 15.4343C10.2017 15.3204 10.6528 15.1702 11.0169 14.9679C11.3592 14.7778 12 14.3335 12 13.5V9.5C12 8.94771 11.5523 8.5 11 8.5H5ZM6 13.2438V10.5H10V13.2438C9.81796 13.3367 9.55483 13.4276 9.18377 13.5513L9.14045 13.5657C8.80356 13.6779 8.36112 13.8252 8 14.0228C7.63889 13.8252 7.19648 13.6779 6.85958 13.5658L6.81623 13.5513C6.44517 13.4276 6.18204 13.3367 6 13.2438ZM10.1329 13.1632C10.1334 13.1632 10.1295 13.1669 10.1195 13.1741C10.1273 13.1667 10.1323 13.1631 10.1329 13.1632ZM7.13286 15.8368C7.1323 15.8369 7.12731 15.8333 7.11955 15.8259C7.12955 15.8331 7.13342 15.8368 7.13286 15.8368ZM5.86714 13.1632C5.8677 13.1631 5.87269 13.1667 5.88045 13.1741C5.87045 13.1669 5.86658 13.1632 5.86714 13.1632ZM8.88045 15.8259C8.87269 15.8333 8.8677 15.8369 8.86714 15.8368C8.86658 15.8368 8.87045 15.8331 8.88045 15.8259Z" fill="#674EAE"/>
<path fill-rule="evenodd" clip-rule="evenodd" d="M3 0.5C1.34315 0.5 0 1.84315 0 3.5V19.5C0 20.0523 0.447715 20.5 1 20.5H13C14.6569 20.5 16 19.1569 16 17.5V5.5C16 4.94772 15.5523 4.5 15 4.5H2V3.5C2 2.94772 2.44772 2.5 3 2.5H16V0.5H3ZM2 18.5V6.5H14V17.5C14 18.0523 13.5523 18.5 13 18.5H2Z" fill="#674EAE"/>
</svg>
