<svg width="20" height="20" viewBox="0 0 20 20" fill="none" xmlns="http://www.w3.org/2000/svg">
<path fill-rule="evenodd" clip-rule="evenodd" d="M10.0001 17.5021C5.85792 17.5021 2.5 14.1442 2.5 10.002C2.5 5.85985 5.85792 2.50195 10.0001 2.50195C14.1423 2.50195 17.5002 5.85985 17.5002 10.002C17.5002 14.1442 14.1423 17.5021 10.0001 17.5021ZM10.6074 6.06476C10.4478 5.90513 10.2271 5.82213 10.0018 5.83703C9.77657 5.82213 9.55584 5.90513 9.39621 6.06476C9.23658 6.22439 9.15358 6.44512 9.16848 6.67037V10.0037C9.15358 10.229 9.23658 10.4497 9.39621 10.6094C9.55584 10.769 9.77657 10.852 10.0018 10.8371C10.2271 10.852 10.4478 10.769 10.6074 10.6094C10.7671 10.4497 10.8501 10.229 10.8352 10.0037V6.67037C10.8501 6.44512 10.7671 6.22439 10.6074 6.06476ZM10.6074 12.7315C10.4478 12.5719 10.2271 12.4889 10.0018 12.5038C9.77657 12.4889 9.55584 12.5719 9.39621 12.7315C9.23658 12.8911 9.15358 13.1119 9.16848 13.3371C9.15358 13.5624 9.23658 13.7831 9.39621 13.9427C9.55584 14.1024 9.77657 14.1854 10.0018 14.1705C10.2271 14.1854 10.4478 14.1024 10.6074 13.9427C10.7671 13.7831 10.8501 13.5624 10.8352 13.3371C10.8501 13.1119 10.7671 12.8911 10.6074 12.7315Z" fill="#674EAE"/>
</svg>
