<svg width="214" height="203" viewBox="0 0 214 203" fill="none" xmlns="http://www.w3.org/2000/svg">
<path d="M37.2029 78.4983C36.6927 89.2985 39.5145 99.17 44.8726 106.665C50.2689 114.194 58.1114 119.358 67.589 120.935C76.7617 122.461 87.1784 120.547 97.0823 115.984C102.038 113.705 106.903 110.719 111.442 107.148C116.015 103.551 120.398 99.2867 123.994 94.5226C127.697 89.6147 130.754 83.816 131 78.1954C131.242 72.2588 129.347 66.8625 126.217 62.9425C123.041 58.9815 118.713 55.9813 113.578 54.8753C111.298 54.3859 108.885 54.1833 106.341 54.7294C104.078 55.2126 101.742 56.1656 99.5479 57.4294C95.4303 59.7934 90.9527 63.6596 89.5083 68.5222C88.7649 71.0268 88.9509 73.5879 89.2708 75.8449C89.6476 78.4658 90.3727 80.9743 91.46 83.1615C92.5331 85.3177 94.1509 87.0946 95.7351 88.7677C97.5019 90.6225 99.4186 92.2979 101.476 93.8047C105.593 96.8008 110.226 99.1158 115.245 100.633C120.144 102.118 125.481 102.999 131 102.734C136.315 102.49 141.817 101.031 147.23 98.701C159.277 93.5274 170.214 84.3049 180.097 74.3432C182.655 71.7648 185.151 69.1316 187.626 66.4605C188.133 65.9184 188.132 65.0708 187.742 64.7219C187.305 64.332 186.601 64.5502 186.094 65.0923C176.59 75.337 166.418 85.5006 154.844 92.349C149.893 95.2769 144.747 97.6066 139.602 98.9601C134.324 100.343 129.308 100.486 124.431 99.8871C114.233 98.6431 105.096 94.2753 98.2434 87.4162C96.6687 85.8437 95.0604 84.1674 93.9286 82.1614C92.8556 80.2449 92.1603 78.0209 91.7308 75.7029C91.3629 73.6793 91.0569 71.2137 91.6269 68.9964C92.1224 67.0442 93.2931 65.3083 94.7618 63.7281C97.9945 60.2787 102.546 57.8601 106.548 57.1061C108.841 56.6677 111.127 56.9416 113.169 57.4759C115.561 58.1026 117.763 59.1488 119.7 60.5287C123.534 63.2543 126.564 67.1028 127.901 72.1108C128.551 74.516 128.893 77.1791 128.57 79.9488C128.273 82.4471 127.348 85.0098 126.099 87.4311C123.499 92.4591 119.611 96.9807 115.522 100.862C111.502 104.677 107.093 107.997 102.5 110.673C93.3727 116.004 83.5427 118.976 74.4425 118.915C65.0746 118.854 56.8735 115.415 50.7606 109.383C44.6706 103.371 40.7559 94.9181 39.7311 85.2335C39.4829 82.8748 39.4259 80.4474 39.5425 77.9724C39.5987 76.4015 37.2756 76.9236 37.2029 78.4983Z" fill="#231F20"/>
<path d="M190.4 76.4704C190.347 76.3427 190.309 76.2096 190.265 76.0702C190.293 76.1551 190.311 76.2516 190.339 76.3364C190.096 75.3993 190.089 74.3084 190.07 73.2471C190.042 72.1375 190.03 71.0225 190.028 69.8958C190.03 69.2546 190.042 68.6018 190.053 67.949C190.055 68.051 190.05 68.1467 190.042 68.2603C190.052 67.5055 190.104 66.7283 190.097 65.979C190.099 65.0561 189.557 64.4385 188.665 64.558C188.033 64.6444 187.35 64.9269 186.686 65.1261C186.079 65.3152 185.475 65.4864 184.883 65.6281C184.207 65.797 183.534 65.9479 182.88 66.0755C182.978 66.0609 183.068 66.04 183.175 66.0136C181.378 66.3601 179.636 66.5346 177.94 66.549C177.463 66.5508 176.978 66.5463 176.497 66.5239C176.245 66.5034 175.859 66.7061 175.596 66.9369C175.317 67.1731 175.032 67.5649 174.93 67.897C174.828 68.2291 174.787 68.5753 174.914 68.8074C175.048 69.0456 175.263 69.1548 175.555 69.1707C178.589 69.3097 181.843 68.8988 185.183 67.9814C185.637 67.859 186.094 67.7187 186.551 67.5784C187.001 67.4319 187.472 67.2442 187.914 67.1513C187.817 67.166 187.727 67.1869 187.62 67.2132C187.734 67.1931 187.838 67.1847 187.957 67.1887C187.871 67.1739 187.776 67.1706 187.691 67.1557C187.769 67.1644 187.838 67.1847 187.897 67.2166C187.824 67.1722 187.751 67.1278 187.668 67.095C187.72 67.1208 187.769 67.1644 187.802 67.2135C187.748 67.1457 187.694 67.0779 187.649 66.9985C187.689 67.0538 187.713 67.1145 187.736 67.1752C187.708 67.0904 187.69 66.9939 187.662 66.909C187.704 67.0662 187.712 67.2343 187.711 67.4141C187.709 67.3122 187.714 67.2164 187.722 67.1029C187.652 70.1148 187.566 73.1321 187.727 76.026C187.769 76.8664 187.89 77.6555 188.158 78.3538C188.251 78.5967 188.535 78.7262 188.799 78.7172C189.063 78.7081 189.434 78.5529 189.699 78.3043C190.33 77.7743 190.603 77.0106 190.4 76.4704Z" fill="#231F20"/>
</svg>
