<svg width="341" height="372" viewBox="0 0 341 372" fill="none" xmlns="http://www.w3.org/2000/svg">
<path fill-rule="evenodd" clip-rule="evenodd" d="M279.619 102.81C304.16 121.79 338.279 137.876 340.77 169.354C343.25 200.686 307.29 226.03 291.737 255.942C273.273 291.455 275.679 339.193 240.848 361.536C206.379 383.646 164.802 362.818 125.723 362.432C84.3245 362.023 35.8455 381.441 4.34414 359.202C-27.169 336.955 -27.6432 291.079 -30.6354 252.05C-33.2417 218.054 -21.2938 184.649 -11.6664 150.361C-1.44299 113.951 -0.775138 73.2393 27.4914 45.0359C56.2309 16.3607 100.283 -4.60932 138.155 0.874684C175.768 6.32115 185.959 51.165 215.167 72.2122C234.529 86.1636 260.789 88.2469 279.619 102.81Z" fill="#F1F0EB"/>
</svg>
