<svg width="147" height="70" viewBox="0 0 147 70" fill="none" xmlns="http://www.w3.org/2000/svg">
<path d="M129.761 105.456C124.772 87.0993 133.467 62.2798 123.804 46.7377C119.972 40.5669 114.348 36.8556 108.201 36.0537C101.582 35.1961 94.9669 38.1144 89.1277 44.1809C81.9518 51.6217 76.2681 61.8366 68.3905 67.8398C64.6645 70.6706 60.6642 72.4728 56.7178 72.1331C52.8401 71.7844 49.4815 69.2272 46.8606 65.744C41.3294 58.4233 39.0378 47.7528 34.9006 38.9494C32.9238 34.7373 30.4433 30.9948 27.1098 28.8545C23.2065 26.3463 18.5387 26.4038 14.0071 27.4352C9.33302 28.5077 4.70031 30.6058 0.110261 32.7375C-4.4219 34.8335 -8.93676 37.0786 -13.4076 39.5028C-22.4918 44.3924 -31.4483 49.9151 -40.2454 56.0782C-42.4328 57.6034 -44.6146 59.1783 -46.7905 60.8028C-48.1256 61.7904 -49.176 59.2834 -47.82 58.2763C-38.9685 51.7139 -29.9264 45.7261 -20.7718 40.4407C-11.6331 35.1518 -2.28414 30.2723 7.10251 26.587C11.7061 24.7729 16.3833 23.4591 20.9692 23.6981C25.2534 23.9431 29.1512 25.8692 32.2286 29.4775C38.0566 36.283 40.3126 47.115 44.3124 55.9364C46.3447 60.427 48.8619 64.6858 52.3254 67.1452C55.7195 69.5409 59.7376 69.6302 63.7258 67.6559C72.1709 63.4721 78.2981 53.1375 85.1084 45.0835C88.3119 41.2902 91.7467 37.8868 95.5585 35.7284C98.6806 33.9741 101.964 33.0056 105.149 32.8624C111.677 32.5385 117.885 35.2655 122.624 40.4993C124.945 43.0693 126.907 46.2859 128.297 49.981C129.882 54.2276 130.594 59.0314 130.848 64.0242C131.384 74.8632 129.591 86.2767 130.66 96.9674C130.917 99.5167 131.353 102.009 131.989 104.352C132.429 106.07 130.227 107.205 129.761 105.456Z" fill="black"/>
</svg>
