<svg width="175" height="186" viewBox="0 0 175 186" fill="none" xmlns="http://www.w3.org/2000/svg">
<path d="M17.1147 77.3489C14.0309 87.713 14.4071 97.5498 17.8169 105.374C21.2557 113.235 27.6378 119.086 36.4683 121.656C45.0147 124.143 55.5939 123.45 66.31 120.142C71.6709 118.493 77.1133 116.15 82.3793 113.206C87.6844 110.242 92.9642 106.612 97.5999 102.414C102.374 98.088 106.734 92.8314 108.319 87.4356C109.977 81.7344 109.429 76.3182 107.327 72.1896C105.19 68.0163 101.705 64.6428 96.9802 63.0074C94.8824 62.283 92.5869 61.8205 89.9845 62.066C87.6694 62.2816 85.1717 62.9428 82.7371 63.9193C78.17 65.7446 72.8932 68.9794 70.3245 73.5113C69.0021 75.8456 68.5691 78.3372 68.3391 80.5503C68.077 83.1208 68.1804 85.6213 68.7127 87.8519C69.2387 90.0511 70.3847 91.9445 71.5229 93.7342C72.795 95.7192 74.2557 97.5478 75.894 99.2293C79.1758 102.576 83.1222 105.322 87.6347 107.342C92.039 109.316 97.0134 110.757 102.439 111.112C107.662 111.465 113.356 110.665 119.175 109.016C132.118 105.358 144.955 97.6695 156.944 89.1516C160.047 86.9468 163.104 84.6824 166.148 82.379C166.77 81.9121 166.973 81.0943 166.677 80.7144C166.347 80.2899 165.61 80.4225 164.988 80.8894C153.299 89.7223 140.98 98.4031 128.094 103.73C122.582 106.007 117.024 107.686 111.701 108.422C106.242 109.173 101.334 108.756 96.739 107.638C87.1292 105.309 79.2983 100.084 74.2838 92.7077C73.1307 91.0162 71.9698 89.2208 71.3508 87.1601C70.7676 85.1923 70.6249 82.9695 70.7632 80.6855C70.8906 78.6923 71.1841 76.2795 72.2693 74.2032C73.2185 72.3745 74.772 70.8292 76.5776 69.467C80.545 66.4966 85.5466 64.6666 89.6155 64.3819C91.9486 64.2127 94.1042 64.7299 95.9597 65.4713C98.134 66.3407 100.023 67.5938 101.574 69.1395C104.646 72.1936 106.667 76.242 106.766 81.2219C106.822 83.6146 106.516 86.2219 105.538 88.8585C104.651 91.2362 103.138 93.6063 101.344 95.8043C97.6134 100.368 92.7519 104.3 87.8488 107.593C83.0292 110.829 77.9502 113.544 72.8465 115.618C62.7009 119.752 52.4381 121.531 43.6111 120.465C34.5238 119.37 27.38 115.144 22.8863 108.648C18.4099 102.174 16.6321 93.5847 17.9571 84.1271C18.2812 81.8239 18.8075 79.4755 19.5139 77.1004C19.9449 75.5909 17.5627 75.8376 17.1147 77.3489Z" fill="#231F20"/>
<path d="M167.453 90.5441C167.422 90.4081 167.407 90.2704 167.387 90.125C167.4 90.2137 167.402 90.3118 167.416 90.4005C167.332 89.4345 167.506 88.3681 167.663 87.328C167.818 86.2389 167.991 85.1481 168.176 84.0478C168.284 83.4224 168.403 82.7875 168.522 82.1527C168.507 82.2526 168.486 82.3449 168.459 82.4541C168.594 81.7194 168.774 80.9718 168.891 80.2389C169.045 79.3383 168.616 78.6211 167.722 78.5498C167.087 78.5008 166.37 78.6324 165.686 78.6868C165.06 78.7435 164.439 78.7832 163.834 78.7967C163.144 78.819 162.459 78.8244 161.796 78.8111C161.894 78.8173 161.986 78.816 162.096 78.8128C160.275 78.772 158.538 78.575 156.872 78.2315C156.404 78.1325 155.93 78.026 155.461 77.9026C155.217 77.8295 154.805 77.9459 154.509 78.1158C154.196 78.2874 153.852 78.6098 153.697 78.9125C153.542 79.2152 153.445 79.5446 153.531 79.7978C153.623 80.0586 153.816 80.2106 154.1 80.2877C157.052 81.0632 160.312 81.3482 163.739 81.1572C164.205 81.1335 164.677 81.0929 165.148 81.0523C165.613 81.0041 166.107 80.9203 166.556 80.9229C166.458 80.9167 166.366 80.918 166.257 80.9211C166.372 80.9256 166.476 80.9394 166.592 80.9684C166.51 80.9359 166.418 80.9127 166.336 80.8801C166.412 80.9051 166.476 80.9394 166.528 80.9831C166.464 80.9242 166.399 80.8654 166.323 80.816C166.37 80.8521 166.412 80.9051 166.436 80.9599C166.394 80.8824 166.352 80.8048 166.321 80.7178C166.352 80.7803 166.364 80.8444 166.377 80.9086C166.364 80.8199 166.362 80.7219 166.348 80.6331C166.363 80.7954 166.344 80.9613 166.313 81.1365C166.328 81.0366 166.349 80.9443 166.376 80.8351C165.809 83.7605 165.225 86.6876 164.905 89.5466C164.807 90.3758 164.795 91.1715 164.942 91.9098C164.994 92.1665 165.251 92.3529 165.511 92.3997C165.771 92.4465 166.161 92.3733 166.462 92.1865C167.168 91.8021 167.563 91.1143 167.453 90.5441Z" fill="#231F20"/>
</svg>
